<svg width="68" height="68" viewBox="0 0 68 68" fill="none" xmlns="http://www.w3.org/2000/svg">
<rect width="68" height="68" rx="34" fill="#ECFDF5"/>
<path fill-rule="evenodd" clip-rule="evenodd" d="M49 34C49 42.2843 42.2843 49 34 49C25.7157 49 19 42.2843 19 34C19 25.7157 25.7157 19 34 19C42.2843 19 49 25.7157 49 34ZM40.0455 29.4545C40.4848 29.8938 40.4848 30.6062 40.0455 31.0455L32.5455 38.5455C32.1062 38.9848 31.3938 38.9848 30.9545 38.5455L27.9545 35.5455C27.5152 35.1062 27.5152 34.3938 27.9545 33.9545C28.3938 33.5152 29.1062 33.5152 29.5455 33.9545L31.75 36.159L35.1023 32.8068L38.4545 29.4545C38.8938 29.0152 39.6062 29.0152 40.0455 29.4545Z" fill="#059669"/>
</svg>
