<svg width="60" height="60" viewBox="0 0 60 60" fill="none" xmlns="http://www.w3.org/2000/svg">
<path d="M55.9734 4.48321C55.952 4.37957 55.9015 4.28417 55.8279 4.20821C55.7542 4.13224 55.6604 4.07886 55.5574 4.05431C48.6938 2.37618 32.8348 8.35626 24.2426 16.9449C22.7101 18.465 21.313 20.1158 20.0672 21.8785C17.4176 21.6441 14.768 21.8399 12.5098 22.8242C6.13829 25.6285 4.28321 32.9457 3.76641 36.0934C3.7371 36.2657 3.74815 36.4424 3.79871 36.6097C3.84927 36.777 3.93795 36.9302 4.05778 37.0574C4.1776 37.1847 4.32531 37.2823 4.48928 37.3428C4.65325 37.4032 4.82901 37.4248 5.00274 37.4059L15.2344 36.2774C15.2417 37.0488 15.2882 37.8193 15.3738 38.5859C15.4253 39.1183 15.6617 39.6159 16.0418 39.9922L20.0039 43.9449C20.3806 44.3246 20.8779 44.5608 21.4102 44.6129C22.1725 44.6982 22.9388 44.7447 23.7059 44.7524L22.5832 54.9711C22.5645 55.1448 22.5862 55.3204 22.6468 55.4843C22.7073 55.6481 22.805 55.7957 22.9322 55.9155C23.0593 56.0353 23.2125 56.124 23.3797 56.1746C23.5468 56.2253 23.7235 56.2365 23.8957 56.2074C27.0375 55.7035 34.3676 53.8484 37.1555 47.477C38.1398 45.2188 38.3414 42.582 38.1141 39.9453C39.8811 38.6994 41.5361 37.3019 43.0606 35.7688C51.6797 27.193 57.6258 11.6879 55.9734 4.48321ZM34.4613 25.5383C33.6743 24.7518 33.1382 23.7495 32.9209 22.6582C32.7035 21.567 32.8147 20.4358 33.2403 19.4078C33.666 18.3797 34.3869 17.501 35.312 16.8828C36.2371 16.2645 37.3248 15.9345 38.4375 15.9345C39.5502 15.9345 40.6379 16.2645 41.563 16.8828C42.4881 17.501 43.209 18.3797 43.6347 19.4078C44.0603 20.4358 44.1715 21.567 43.9542 22.6582C43.7368 23.7495 43.2007 24.7518 42.4137 25.5383C41.8918 26.0609 41.272 26.4755 40.5897 26.7584C39.9074 27.0413 39.1761 27.1869 38.4375 27.1869C37.6989 27.1869 36.9676 27.0413 36.2853 26.7584C35.603 26.4755 34.9832 26.0609 34.4613 25.5383Z" fill="black"/>
<path d="M19.7344 46.8082C19.0922 47.4516 18.0621 47.7023 16.8223 47.9168C14.0367 48.3914 11.577 45.9844 12.0773 43.1684C12.2684 42.1008 12.8332 40.6043 13.1848 40.2527C13.2616 40.1774 13.3128 40.0797 13.3309 39.9736C13.3491 39.8676 13.3334 39.7584 13.2861 39.6618C13.2387 39.5651 13.1621 39.4859 13.0672 39.4352C12.9722 39.3846 12.8637 39.3652 12.757 39.3797C11.1993 39.5703 9.75016 40.2765 8.64023 41.3859C5.88516 44.1434 5.625 54.375 5.625 54.375C5.625 54.375 15.8625 54.1148 18.6176 51.3574C19.7305 50.2484 20.4376 48.797 20.625 47.2371C20.6684 46.7473 20.0719 46.4555 19.7344 46.8082Z" fill="#FA1819"/>
</svg>
