<svg width="24" height="24" viewBox="0 0 24 24" fill="none" xmlns="http://www.w3.org/2000/svg">
<path fill-rule="evenodd" clip-rule="evenodd" d="M6.00748 3.40686C7.68755 1.72679 10.5227 1.85451 11.6925 3.95063L12.3415 5.11356C13.1054 6.48238 12.7799 8.20946 11.6616 9.34143C11.6467 9.36184 11.5678 9.47677 11.5579 9.67758C11.5454 9.93391 11.6364 10.5267 12.5548 11.4451C13.473 12.3632 14.0657 12.4545 14.3221 12.442C14.5231 12.4322 14.6381 12.3533 14.6585 12.3383C15.7905 11.2201 17.5176 10.8945 18.8864 11.6584L20.0493 12.3075C22.1455 13.4773 22.2732 16.3124 20.5931 17.9925C19.6944 18.8911 18.4995 19.6896 17.0953 19.7429C15.0144 19.8218 11.5592 19.2844 8.13738 15.8626C4.71559 12.4408 4.17821 8.98556 4.2571 6.90463C4.31033 5.50044 5.10882 4.30552 6.00748 3.40686ZM10.3827 4.68163C9.78366 3.60828 8.17397 3.36169 7.06814 4.46752C6.29279 5.24287 5.78873 6.09868 5.75602 6.96146C5.69023 8.6968 6.11867 11.7226 9.19804 14.8019C12.2774 17.8813 15.3032 18.3097 17.0385 18.2439C17.9013 18.2112 18.7571 17.7072 19.5324 16.9318C20.6383 15.826 20.3917 14.2163 19.3183 13.6173L18.1554 12.9683C17.432 12.5645 16.4159 12.7023 15.7026 13.4156L15.7023 13.4158C15.6323 13.4858 15.1865 13.9018 14.395 13.9403C13.5848 13.9797 12.604 13.6156 11.4942 12.5058C10.384 11.3956 10.0201 10.4146 10.0597 9.60423C10.0985 8.81271 10.5147 8.36711 10.5844 8.29746L10.5844 8.29743C11.2977 7.58411 11.4354 6.56797 11.0317 5.84456L10.3827 4.68163Z" fill="currentColor"/>
</svg>
